<?xml version="1.0" encoding="UTF-8" standalone="no"?>
<!-- Created with Inkscape (http://www.inkscape.org/) -->

<svg
   xmlns:dc="http://purl.org/dc/elements/1.1/"
   xmlns:cc="http://creativecommons.org/ns#"
   xmlns:rdf="http://www.w3.org/1999/02/22-rdf-syntax-ns#"
   xmlns:svg="http://www.w3.org/2000/svg"
   xmlns="http://www.w3.org/2000/svg"
   xmlns:sodipodi="http://sodipodi.sourceforge.net/DTD/sodipodi-0.dtd"
   xmlns:inkscape="http://www.inkscape.org/namespaces/inkscape"
   width="78.750992mm"
   height="56.052402mm"
   viewBox="0 0 279.03895 198.61087"
   id="svg5753"
   version="1.1"
   inkscape:version="0.91 r13725"
   sodipodi:docname="design_is_everything_path.svg">
  <defs
     id="defs5755">
    <clipPath
       clipPathUnits="userSpaceOnUse"
       id="clipPath4363">
      <rect
         style="color:#000000;clip-rule:nonzero;display:inline;overflow:visible;visibility:visible;opacity:1;isolation:auto;mix-blend-mode:normal;color-interpolation:sRGB;color-interpolation-filters:linearRGB;solid-color:#000000;solid-opacity:1;fill:none;fill-opacity:1;fill-rule:nonzero;stroke:#000000;stroke-width:2.5;stroke-linecap:butt;stroke-linejoin:miter;stroke-miterlimit:4;stroke-dasharray:none;stroke-dashoffset:0;stroke-opacity:1;color-rendering:auto;image-rendering:auto;shape-rendering:auto;text-rendering:auto;enable-background:accumulate"
         id="rect4365"
         width="171.82695"
         height="122.32948"
         x="451.84125"
         y="654.26105" />
    </clipPath>
  </defs>
  <sodipodi:namedview
     id="base"
     pagecolor="#ffffff"
     bordercolor="#666666"
     borderopacity="1.0"
     inkscape:pageopacity="0.0"
     inkscape:pageshadow="2"
     inkscape:zoom="0.35"
     inkscape:cx="-331.19482"
     inkscape:cy="67.876868"
     inkscape:document-units="px"
     inkscape:current-layer="layer1"
     showgrid="false"
     borderlayer="true"
     fit-margin-top="0"
     fit-margin-left="0"
     fit-margin-right="0"
     fit-margin-bottom="0"
     inkscape:window-width="1440"
     inkscape:window-height="851"
     inkscape:window-x="0"
     inkscape:window-y="1"
     inkscape:window-maximized="1" />
  <metadata
     id="metadata5758">
    <rdf:RDF>
      <cc:Work
         rdf:about="">
        <dc:format>image/svg+xml</dc:format>
        <dc:type
           rdf:resource="http://purl.org/dc/dcmitype/StillImage" />
        <dc:title></dc:title>
      </cc:Work>
    </rdf:RDF>
  </metadata>
  <g
     inkscape:label="Layer 1"
     inkscape:groupmode="layer"
     id="layer1"
     transform="translate(279.51946,-401.6282)">
    <text
       xml:space="preserve"
       style="font-style:normal;font-variant:normal;font-weight:normal;font-stretch:normal;font-size:212.25463867px;line-height:150.99999905%;font-family:Quattrocento;-inkscape-font-specification:Quattrocento;letter-spacing:0px;word-spacing:0px;display:inline;fill:#f2c622;fill-opacity:1;stroke:none;stroke-width:1px;stroke-linecap:butt;stroke-linejoin:miter;stroke-opacity:1"
       x="475.28339"
       y="767.96326"
       id="text5114"
       sodipodi:linespacing="151%"
       clip-path="url(#clipPath4363)"
       transform="matrix(1.7116166,0,0,1.7116166,-1067.1161,-718.21587)"
       inkscape:export-xdpi="90"
       inkscape:export-ydpi="90"><tspan
         sodipodi:role="line"
         id="tspan5116"
         x="475.28339"
         y="767.96326"
         style="font-style:normal;font-variant:normal;font-weight:normal;font-stretch:normal;font-family:Quattrocento;-inkscape-font-specification:Quattrocento;fill:#f2c622;fill-opacity:1">is</tspan></text>
    <text
       xml:space="preserve"
       style="font-style:normal;font-variant:normal;font-weight:normal;font-stretch:normal;font-size:34.23491287px;line-height:150.99999905%;font-family:'ChunkFive Ex';-inkscape-font-specification:'ChunkFive Ex';letter-spacing:0px;word-spacing:0px;display:inline;fill:#1a0238;fill-opacity:1;stroke:none;stroke-width:1px;stroke-linecap:butt;stroke-linejoin:miter;stroke-opacity:1"
       x="-280.37534"
       y="429.5365"
       id="text5059"
       sodipodi:linespacing="151%"
       inkscape:export-xdpi="90"
       inkscape:export-ydpi="90"><tspan
         sodipodi:role="line"
         id="tspan5061"
         x="-280.37534"
         y="429.5365">Design</tspan></text>
    <g
       style="font-style:normal;font-variant:normal;font-weight:normal;font-stretch:normal;font-size:34.23491287px;line-height:0%;font-family:'ChunkFive Ex';-inkscape-font-specification:'ChunkFive Ex';letter-spacing:-7.07806873px;word-spacing:0px;writing-mode:tb-rl;display:inline;fill:#1a0238;fill-opacity:1;stroke:none;stroke-width:1px;stroke-linecap:butt;stroke-linejoin:miter;stroke-opacity:1"
       id="text5063">
      <path
         d="m -152.03191,405.61344 20.64366,0 0,7.56592 -5.92264,0 0,-3.04691 -5.47759,0 0,4.72442 6.50463,0 0,4.55324 -6.50463,0 0,5.58029 5.47759,0 0,-3.18384 5.92264,0 0,7.73709 -20.64366,0 0,-4.55325 2.1568,0 0,-14.85795 -2.1568,0 0,-4.51901 z"
         style=""
         id="path4146" />
      <path
         d="m -140.37733,449.03187 q 0.0685,-0.71893 0.37659,-1.88292 0.30811,-1.16398 0.85587,-2.46491 l 3.11538,-7.46321 -1.78022,0 0,-4.45054 9.68848,0 0,4.45054 -1.67751,0 -8.21638,19.47966 -6.29922,0 -9.07225,-19.47966 -1.88292,0 0,-4.45054 12.63268,0 0,4.45054 -1.88292,0 2.90997,7.66862 q 0.41082,1.26669 0.6847,2.36221 0.30811,1.06128 0.37658,1.78021 l 0.17117,0 z"
         style=""
         id="path4148" />
      <path
         d="m -152.03191,459.92713 20.64366,0 0,7.56592 -5.92264,0 0,-3.04691 -5.47759,0 0,4.72442 6.50463,0 0,4.55324 -6.50463,0 0,5.58029 5.47759,0 0,-3.18384 5.92264,0 0,7.73709 -20.64366,0 0,-4.55325 2.1568,0 0,-14.85795 -2.1568,0 0,-4.51901 z"
         style=""
         id="path4150" />
      <path
         d="m -153.43607,487.08397 11.12634,0 q 2.97844,0 4.82713,0.54776 1.84868,0.54776 2.87573,1.50634 1.06128,0.95857 1.40363,2.2595 0.37658,1.26669 0.37658,2.73879 0,0.99282 -0.37658,1.84869 -0.37658,0.85587 -1.06128,1.50633 -0.65047,0.61623 -1.57481,1.06129 -0.89011,0.41082 -1.95139,0.54776 0.89011,0.13694 1.67751,0.58199 0.82164,0.41082 1.43787,1.06128 0.61623,0.65046 0.99281,1.4721 0.37659,0.82164 0.37659,1.74598 0,1.09552 0.17117,1.71175 0.17117,0.61623 0.65046,0.61623 0.78741,0 0.78741,-1.09552 l 0,-1.12975 2.29374,0 0,1.88292 q 0,1.06128 -0.23965,2.05409 -0.23964,0.99282 -0.82164,1.74598 -0.58199,0.75317 -1.54057,1.23246 -0.95858,0.44505 -2.39644,0.44505 -3.38926,0 -5.03253,-1.67751 -1.60905,-1.67751 -1.60905,-4.69018 0,-1.16399 -0.1027,-1.91715 -0.1027,-0.75317 -0.47929,-1.16399 -0.34235,-0.44506 -1.02705,-0.61623 -0.68469,-0.17117 -1.81445,-0.17117 l 0,5.30641 2.08833,0 0,4.51901 -11.05787,0 0,-4.51901 1.91715,0 0,-14.92643 -1.91715,0 0,-4.48477 z m 8.96954,4.45054 0,5.81994 1.54057,0 q 1.50634,0 2.39645,-0.6847 0.89011,-0.71894 0.89011,-2.08833 0,-1.54057 -0.82164,-2.29374 -0.7874,-0.75317 -2.29374,-0.75317 l -1.71175,0 z"
         style=""
         id="path4152" />
      <path
         d="m -140.38562,525.02481 q 0.0342,-0.23964 0.17118,-0.61622 0.17117,-0.37659 0.34235,-0.78741 0.20541,-0.41082 0.41082,-0.82164 0.2054,-0.41081 0.34234,-0.71893 l 1.88292,-3.45772 -1.88292,0 0,-4.38207 9.2092,0 0,4.38207 -1.84869,0 -6.33346,11.12634 0,3.97125 1.91716,0 0,4.45054 -10.95518,0 0,-4.45054 1.95139,0 0,-4.03972 -6.64157,-11.05787 -1.67751,0 0,-4.38207 11.70834,0 0,4.38207 -1.78021,0 1.98562,3.6289 q 0.0685,0.23964 0.20541,0.61622 0.17117,0.37659 0.34235,0.78741 0.17117,0.41082 0.30811,0.7874 0.13694,0.37658 0.20541,0.58199 l 0.13694,0 z"
         style=""
         id="path4154" />
    </g>
    <text
       xml:space="preserve"
       style="font-style:normal;font-variant:normal;font-weight:normal;font-stretch:normal;font-size:34.23491287px;line-height:150.99999905%;font-family:'ChunkFive Ex';-inkscape-font-specification:'ChunkFive Ex';letter-spacing:0px;word-spacing:0px;display:inline;fill:#1a0238;fill-opacity:1;stroke:none;stroke-width:1px;stroke-linecap:butt;stroke-linejoin:miter;stroke-opacity:1"
       x="-130.97652"
       y="538.17438"
       id="text5067"
       sodipodi:linespacing="151%"
       inkscape:export-xdpi="90"
       inkscape:export-ydpi="90"><tspan
         sodipodi:role="line"
         id="tspan5069"
         x="-130.97652"
         y="538.17438">ITHING</tspan></text>
    <rect
       style="color:#000000;clip-rule:nonzero;display:inline;overflow:visible;visibility:visible;opacity:1;isolation:auto;mix-blend-mode:normal;color-interpolation:sRGB;color-interpolation-filters:linearRGB;solid-color:#000000;solid-opacity:1;fill:#f2c622;fill-opacity:1;fill-rule:nonzero;stroke:none;stroke-width:2.5;stroke-linecap:butt;stroke-linejoin:miter;stroke-miterlimit:4;stroke-dasharray:none;stroke-dashoffset:0;stroke-opacity:1;color-rendering:auto;image-rendering:auto;shape-rendering:auto;text-rendering:auto;enable-background:accumulate"
       id="rect5075"
       width="12.758978"
       height="24.467558"
       x="-130.12065"
       y="514.00446"
       inkscape:export-xdpi="90"
       inkscape:export-ydpi="90" />
    <rect
       y="405.65146"
       x="-164.83633"
       height="23.894814"
       width="12.758978"
       id="rect5077"
       style="color:#000000;clip-rule:nonzero;display:inline;overflow:visible;visibility:visible;opacity:1;isolation:auto;mix-blend-mode:normal;color-interpolation:sRGB;color-interpolation-filters:linearRGB;solid-color:#000000;solid-opacity:1;fill:#f2c622;fill-opacity:1;fill-rule:nonzero;stroke:none;stroke-width:2.5;stroke-linecap:butt;stroke-linejoin:miter;stroke-miterlimit:4;stroke-dasharray:none;stroke-dashoffset:0;stroke-opacity:1;color-rendering:auto;image-rendering:auto;shape-rendering:auto;text-rendering:auto;enable-background:accumulate"
       inkscape:export-xdpi="90"
       inkscape:export-ydpi="90" />
  </g>
</svg>
