<?xml version="1.0" encoding="UTF-8" standalone="no"?>
<!-- Created with Inkscape (http://www.inkscape.org/) -->

<svg
   xmlns:dc="http://purl.org/dc/elements/1.1/"
   xmlns:cc="http://creativecommons.org/ns#"
   xmlns:rdf="http://www.w3.org/1999/02/22-rdf-syntax-ns#"
   xmlns:svg="http://www.w3.org/2000/svg"
   xmlns="http://www.w3.org/2000/svg"
   xmlns:xlink="http://www.w3.org/1999/xlink"
   xmlns:sodipodi="http://sodipodi.sourceforge.net/DTD/sodipodi-0.dtd"
   xmlns:inkscape="http://www.inkscape.org/namespaces/inkscape"
   width="177.42706mm"
   height="51.533382mm"
   viewBox="0 0 628.67857 182.5986"
   id="svg4629"
   version="1.1"
   inkscape:version="0.91 r13725"
   sodipodi:docname="wd_header_with_tag.svg">
  <defs
     id="defs4631">
    <marker
       inkscape:isstock="true"
       style="overflow:visible"
       id="Arrow1Lend"
       refX="0"
       refY="0"
       orient="auto"
       inkscape:stockid="Arrow1Lend">
      <path
         inkscape:connector-curvature="0"
         transform="matrix(-0.8,0,0,-0.8,-10,0)"
         style="fill:#000000;fill-opacity:1;fill-rule:evenodd;stroke:#000000;stroke-width:1pt;stroke-opacity:1"
         d="M 0,0 5,-5 -12.5,0 5,5 0,0 Z"
         id="path4561" />
    </marker>
    <linearGradient
       inkscape:collect="always"
       xlink:href="#linearGradient5771"
       id="linearGradient4795"
       gradientUnits="userSpaceOnUse"
       gradientTransform="matrix(1.28252,0,0,1.28252,-2122.161,726.24554)"
       x1="2270.9021"
       y1="-519.21759"
       x2="1663.6208"
       y2="-522.34259" />
    <linearGradient
       id="linearGradient5771">
      <stop
         id="stop4258"
         offset="0"
         style="stop-color:#c195fb;stop-opacity:1;" />
      <stop
         style="stop-color:#a771ed;stop-opacity:1;"
         offset="0.01602221"
         id="stop4260" />
      <stop
         id="stop4262"
         offset="0.03209028"
         style="stop-color:#9a5fe6;stop-opacity:1;" />
      <stop
         style="stop-color:#8d4ddf;stop-opacity:1;"
         offset="0.04789367"
         id="stop4264" />
      <stop
         style="stop-color:#6d26ca;stop-opacity:1;"
         offset="0.23862244"
         id="stop4266" />
      <stop
         style="stop-color:#5707c1;stop-opacity:1;"
         offset="0.37781262"
         id="stop4268" />
      <stop
         style="stop-color:#410591;stop-opacity:1;"
         offset="0.47105426"
         id="stop4270" />
      <stop
         id="stop4272"
         offset="0.62100124"
         style="stop-color:#30046a;stop-opacity:1;" />
      <stop
         style="stop-color:#270357;stop-opacity:1;"
         offset="0.79535574"
         id="stop4274" />
      <stop
         style="stop-color:#1f0244;stop-opacity:1;"
         offset="0.95979756"
         id="stop4276" />
      <stop
         style="stop-color:#160230;stop-opacity:1;"
         offset="1"
         id="stop4278" />
    </linearGradient>
  </defs>
  <sodipodi:namedview
     id="base"
     pagecolor="#ffffff"
     bordercolor="#666666"
     borderopacity="1.0"
     inkscape:pageopacity="0.0"
     inkscape:pageshadow="2"
     inkscape:zoom="0.98994949"
     inkscape:cx="336.55905"
     inkscape:cy="-25.296423"
     inkscape:document-units="px"
     inkscape:current-layer="layer1"
     showgrid="false"
     borderlayer="true"
     fit-margin-top="0"
     fit-margin-left="0"
     fit-margin-right="0"
     fit-margin-bottom="0"
     inkscape:window-width="1440"
     inkscape:window-height="851"
     inkscape:window-x="0"
     inkscape:window-y="1"
     inkscape:window-maximized="1" />
  <metadata
     id="metadata4634">
    <rdf:RDF>
      <cc:Work
         rdf:about="">
        <dc:format>image/svg+xml</dc:format>
        <dc:type
           rdf:resource="http://purl.org/dc/dcmitype/StillImage" />
        <dc:title></dc:title>
      </cc:Work>
    </rdf:RDF>
  </metadata>
  <g
     inkscape:label="Layer 1"
     inkscape:groupmode="layer"
     id="layer1"
     transform="translate(1128.625,-74.595096)">
    <path
       style="fill:none;fill-rule:evenodd;stroke:#000000;stroke-width:0.25718337px;stroke-linecap:butt;stroke-linejoin:miter;stroke-opacity:1;marker-end:url(#Arrow1Lend)"
       d="m -1116.4788,234.5584 605.45518,0"
       id="path4761"
       inkscape:connector-curvature="0" />
    <path
       style="font-style:normal;font-variant:normal;font-weight:normal;font-stretch:normal;font-size:120px;line-height:125%;font-family:ChunkFive;-inkscape-font-specification:ChunkFive;letter-spacing:0px;word-spacing:0px;fill:url(#linearGradient4795);fill-opacity:1;stroke:none"
       d="M 261.75781 0 C 246.67537 0 225.125 10.286876 225.125 33.064453 C 225.125 51.188159 237.71866 59.864791 251.28516 65.130859 L 251.28516 36.876953 L 248.70117 36.876953 L 248.70117 28.935547 L 262.98242 28.935547 L 262.98242 67.042969 L 266.61523 67.042969 L 266.61523 75.107422 L 248.63867 75.107422 L 248.63867 71.541016 L 223.12109 71.541016 L 223.12109 110.33594 L 250.05469 110.33594 L 251.73828 98.472656 C 257.58658 105.39827 268.37771 112.66211 283.92188 112.66211 C 302.23625 112.66211 324.68164 104.04575 324.68164 80.037109 C 324.68164 61.891899 309.34859 53.795484 294.06055 48.214844 L 294.06055 41.402344 L 321.91602 41.402344 L 321.91602 2.765625 L 295.46484 2.765625 L 293.90039 15.669922 C 287.74429 4.1272489 274.6855 0 261.75781 0 z M 437.14258 0.921875 C 413.13379 0.921875 389.88867 24.002003 389.88867 57.552734 C 389.88867 90.795644 411.2917 111.74023 438.22461 111.74023 C 450.07511 111.74023 459.60635 106.33307 462.99219 100.63867 L 467.76172 110.33594 L 504.96094 110.33594 L 504.96094 71.861328 L 504.96094 55.388672 L 504.96094 2.765625 L 470.4082 2.765625 L 467.16211 13.828125 C 464.69968 11.365671 459.45828 0.921875 437.14258 0.921875 z M 11.787109 2.765625 L 11.787109 32.076172 L 20.314453 32.076172 L 20.314453 40.078125 L 16.744141 40.078125 L 18.345703 49.066406 C 18.509866 49.805138 18.693234 50.768806 18.898438 51.958984 C 19.103641 53.149163 19.288962 54.360578 19.453125 55.591797 C 19.658328 56.781975 19.822191 57.911459 19.945312 58.978516 C 20.109475 60.004532 20.232372 60.741912 20.314453 61.193359 L 20.623047 61.193359 C 20.664088 60.782953 20.786984 60.024113 20.992188 58.916016 C 21.197391 57.807918 21.443184 56.536032 21.730469 55.099609 C 22.017753 53.663187 22.325972 52.145507 22.654297 50.544922 C 22.982622 48.944337 23.310347 47.405197 23.638672 45.927734 L 26.716797 32.076172 L 39.521484 32.076172 L 43.400391 49.066406 C 43.646634 50.051382 43.851462 51.098934 44.015625 52.207031 C 44.220828 53.315129 44.384691 54.401693 44.507812 55.46875 C 44.671975 56.535807 44.816331 57.5619 44.939453 58.546875 C 45.062575 59.53185 45.165966 60.413587 45.248047 61.193359 L 45.554688 61.193359 C 45.595728 60.495669 45.677659 59.613932 45.800781 58.546875 C 45.964944 57.479818 46.128806 56.3913 46.292969 55.283203 C 46.498172 54.134065 46.683494 53.0475 46.847656 52.021484 C 47.052859 50.954428 47.238181 50.092197 47.402344 49.435547 L 49.494141 40.078125 L 46.109375 40.078125 L 46.109375 32.076172 L 63.714844 32.076172 L 63.714844 40.078125 L 60.330078 40.078125 L 51.15625 75.107422 L 36.566406 75.107422 L 32.873047 60.455078 C 32.749925 59.92155 32.607522 59.326572 32.443359 58.669922 C 32.279197 57.972231 32.134841 57.273863 32.011719 56.576172 C 31.888597 55.878481 31.7657 55.201572 31.642578 54.544922 C 31.519456 53.888272 31.416066 53.314753 31.333984 52.822266 L 31.087891 52.822266 C 31.005809 53.273713 30.904372 53.847231 30.78125 54.544922 C 30.699169 55.201572 30.574319 55.89994 30.410156 56.638672 C 30.287034 57.336363 30.144631 58.013272 29.980469 58.669922 C 29.857347 59.326572 29.73445 59.880584 29.611328 60.332031 L 25.855469 75.107422 L 11.787109 75.107422 L 11.787109 110.33594 L 58.117188 110.33594 C 88.042593 110.33594 107.58203 97.720163 114.46289 75.107422 L 105.04102 75.107422 L 105.04102 58.361328 C 105.04102 57.8278 105.01956 57.232822 104.97852 56.576172 C 104.93747 55.919522 104.79507 55.305038 104.54883 54.730469 C 104.34362 54.1559 103.99444 53.66236 103.50195 53.251953 C 103.00947 52.841547 102.3111 52.636719 101.4082 52.636719 C 100.62843 52.636719 99.972981 52.82204 99.439453 53.191406 C 98.946965 53.519731 98.556816 53.970353 98.269531 54.544922 C 97.982247 55.07845 97.777419 55.694887 97.654297 56.392578 C 97.572216 57.049228 97.53125 57.704678 97.53125 58.361328 L 97.53125 67.042969 L 101.96289 67.042969 L 101.96289 75.107422 L 82.632812 75.107422 L 82.632812 67.042969 L 85.21875 67.042969 L 85.21875 36.939453 L 82.632812 36.939453 L 82.632812 28.935547 L 97.53125 28.935547 L 97.53125 48.142578 C 97.695413 47.855294 98.083609 47.445638 98.699219 46.912109 C 99.314828 46.378581 100.05416 45.844075 100.91602 45.310547 C 101.81891 44.735978 102.80404 44.244391 103.87109 43.833984 C 104.97919 43.423578 106.08722 43.21875 107.19531 43.21875 C 109.57567 43.21875 111.46399 43.628406 112.85938 44.449219 C 114.2958 45.228991 115.38236 46.276543 116.12109 47.589844 C 116.4527 48.130878 116.72152 48.712482 116.94922 49.320312 C 114.34461 22.741578 93.537431 2.765625 58.759766 2.765625 L 11.787109 2.765625 z M 122.72461 2.765625 L 122.72461 110.33594 L 215.50586 110.33594 L 215.50586 75.548828 L 215.44727 75.548828 L 215.38672 75.548828 L 215.32617 75.548828 L 215.26562 75.548828 L 215.26562 65.859375 L 215.26562 56.169922 L 215.26562 46.480469 L 215.26562 36.792969 L 215.32617 36.792969 L 215.38672 36.792969 L 215.44727 36.792969 L 215.50586 36.792969 L 215.50586 2.765625 L 122.72461 2.765625 z M 332.53711 2.765625 L 332.53711 23.085938 L 332.53711 96.308594 L 332.53711 110.33594 L 383.63672 110.33594 L 383.63672 89.857422 L 383.55859 89.857422 L 383.55859 23.085938 L 383.63672 23.085938 L 383.63672 2.765625 L 332.53711 2.765625 z M 510.92773 2.765625 L 510.92773 22.603516 L 519.86523 22.603516 L 519.86523 90.498047 L 510.76758 90.498047 L 510.76758 110.33594 L 558.01953 110.33594 L 558.01953 90.537109 L 572.16797 90.537109 L 585.43359 110.33594 L 618.49805 110.33594 L 618.49805 22.603516 L 628.67773 22.603516 L 628.67773 2.765625 L 582.34766 2.765625 L 582.34766 22.603516 L 568.35938 22.603516 L 555.09375 2.765625 L 510.92773 2.765625 z M 349.39258 29.058594 C 350.45963 29.058594 351.4038 29.265375 352.22461 29.675781 C 353.08646 30.045147 353.80434 30.536734 354.37891 31.152344 C 354.95348 31.767953 355.38459 32.444862 355.67188 33.183594 C 356.0002 33.922325 356.16406 34.6402 356.16406 35.337891 C 356.16406 37.061597 355.59054 38.540265 354.44141 39.771484 C 353.29227 40.961663 351.60877 41.556641 349.39258 41.556641 C 348.4076 41.556641 347.50441 41.371319 346.68359 41.001953 C 345.90382 40.632587 345.20741 40.160506 344.5918 39.585938 C 344.01723 38.970328 343.56465 38.293419 343.23633 37.554688 C 342.908 36.815956 342.74414 36.076622 342.74414 35.337891 C 342.74414 34.6402 342.8885 33.922325 343.17578 33.183594 C 343.46307 32.444862 343.87272 31.767953 344.40625 31.152344 C 344.98082 30.536734 345.67919 30.045147 346.5 29.675781 C 347.36185 29.265375 348.32552 29.058594 349.39258 29.058594 z M 531.07031 29.058594 C 532.13737 29.058594 533.08153 29.265375 533.90234 29.675781 C 534.7642 30.045147 535.48207 30.536734 536.05664 31.152344 C 536.63121 31.767953 537.06232 32.444862 537.34961 33.183594 C 537.67793 33.922325 537.8418 34.6402 537.8418 35.337891 C 537.8418 37.061597 537.26633 38.540265 536.11719 39.771484 C 534.96805 40.961663 533.28651 41.556641 531.07031 41.556641 C 530.08534 41.556641 529.18214 41.371319 528.36133 41.001953 C 527.58156 40.632587 526.88319 40.160506 526.26758 39.585938 C 525.69301 38.970328 525.24239 38.293419 524.91406 37.554688 C 524.58574 36.815956 524.42187 36.076622 524.42188 35.337891 C 524.42188 34.6402 524.56428 33.922325 524.85156 33.183594 C 525.13885 32.444862 525.55046 31.767953 526.08398 31.152344 C 526.65855 30.536734 527.35497 30.045147 528.17578 29.675781 C 529.03763 29.265375 530.00326 29.058594 531.07031 29.058594 z M 496.41406 35.03125 L 496.41406 44.326172 L 502.26172 44.326172 L 502.26172 52.330078 L 496.41406 52.330078 L 496.41406 63.287109 C 496.41406 63.574394 496.3926 63.861153 496.35156 64.148438 L 496.35156 65.072266 C 496.35156 65.893078 496.45495 66.632412 496.66016 67.289062 C 496.9064 67.904672 497.48187 68.212891 498.38477 68.212891 C 498.79517 68.212891 499.39015 68.1095 500.16992 67.904297 C 500.99073 67.658053 501.68715 67.412259 502.26172 67.166016 L 502.26172 75.044922 C 501.81027 75.250125 501.23675 75.413987 500.53906 75.537109 C 499.84137 75.701272 499.1235 75.824169 498.38477 75.90625 C 497.64603 75.988331 496.94767 76.050756 496.29102 76.091797 C 495.67541 76.173878 495.18382 76.214844 494.81445 76.214844 C 492.51618 76.214844 490.70978 75.906625 489.39648 75.291016 C 488.12422 74.675406 487.18006 73.813175 486.56445 72.705078 C 485.94884 71.596981 485.55869 70.243163 485.39453 68.642578 C 485.23037 67.041993 485.12698 65.25706 485.08594 63.287109 L 485.08594 52.330078 L 481.76172 52.330078 L 481.76172 44.326172 L 485.08594 44.326172 L 485.08594 38.662109 L 496.41406 35.03125 z M 175.30859 43.587891 C 177.72999 43.587891 179.98701 43.97804 182.08008 44.757812 C 184.17315 45.496544 185.97954 46.583109 187.49805 48.019531 C 189.05759 49.414913 190.26901 51.139374 191.13086 53.191406 C 191.99271 55.202398 192.42383 57.500377 192.42383 60.085938 C 192.42383 62.630457 191.97125 64.887471 191.06836 66.857422 C 190.20651 68.786332 189.01655 70.428862 187.49805 71.783203 C 185.97954 73.137544 184.19461 74.163637 182.14258 74.861328 C 180.13159 75.559019 177.9565 75.90625 175.61719 75.90625 C 173.40099 75.90625 171.24542 75.578525 169.15234 74.921875 C 167.10031 74.224184 165.27441 73.198091 163.67383 71.84375 C 162.07324 70.489409 160.80136 68.786407 159.85742 66.734375 C 158.91349 64.682343 158.44141 62.302432 158.44141 59.59375 C 158.44141 57.00819 158.91349 54.729716 159.85742 52.759766 C 160.8424 50.748774 162.11428 49.067232 163.67383 47.712891 C 165.27441 46.35855 167.08081 45.332456 169.0918 44.634766 C 171.14383 43.937075 173.21552 43.587891 175.30859 43.587891 z M 425.67188 43.587891 C 427.76495 43.587891 429.65327 44.059972 431.33594 45.003906 C 433.0186 45.947841 434.1871 47.075371 434.84375 48.388672 L 435.33594 44.326172 L 442.9082 44.326172 L 442.9082 55.408203 L 434.90625 55.408203 C 434.90625 54.751553 434.72093 54.154622 434.35156 53.621094 C 433.9822 53.046525 433.49061 52.554938 432.875 52.144531 C 432.30043 51.693084 431.64303 51.3439 430.9043 51.097656 C 430.16557 50.851412 429.40673 50.728516 428.62695 50.728516 C 427.9703 50.728516 427.39483 50.913837 426.90234 51.283203 C 426.4509 51.611528 426.22656 52.16554 426.22656 52.945312 C 426.22656 53.643003 426.65572 54.197015 427.51758 54.607422 C 428.37943 55.017828 429.44649 55.427484 430.71875 55.837891 C 432.03205 56.207256 433.44829 56.638372 434.9668 57.130859 C 436.4853 57.582306 437.88204 58.198743 439.1543 58.978516 C 440.4676 59.758288 441.55416 60.762921 442.41602 61.994141 C 443.27787 63.184319 443.70898 64.723459 443.70898 66.611328 C 443.70898 68.04775 443.38126 69.341096 442.72461 70.490234 C 442.109 71.639372 441.26628 72.6245 440.19922 73.445312 C 439.1732 74.225085 437.96374 74.820062 436.56836 75.230469 C 435.17298 75.640875 433.73528 75.845703 432.25781 75.845703 C 430.04162 75.845703 428.09282 75.393128 426.41016 74.490234 C 424.76853 73.58734 423.57858 72.541741 422.83984 71.351562 L 422.28516 75.107422 L 414.58984 75.107422 L 414.58984 64.025391 L 422.83984 64.025391 C 422.83984 64.846203 423.08564 65.523112 423.57812 66.056641 C 424.11165 66.590169 424.72809 67.021284 425.42578 67.349609 C 426.12347 67.636894 426.84135 67.841722 427.58008 67.964844 C 428.31881 68.087966 428.91379 68.150391 429.36523 68.150391 C 429.98084 68.150391 430.57582 68.027494 431.15039 67.78125 C 431.766 67.493966 432.07422 66.918494 432.07422 66.056641 C 432.07422 65.482072 431.6431 65.03145 430.78125 64.703125 C 429.96044 64.333759 428.89338 63.984575 427.58008 63.65625 C 426.30782 63.327925 424.93254 62.937775 423.45508 62.486328 C 421.97762 62.034881 420.58283 61.420397 419.26953 60.640625 C 417.99727 59.819812 416.93021 58.77226 416.06836 57.5 C 415.24755 56.1867 414.83594 54.524663 414.83594 52.513672 C 414.83594 50.954128 415.18512 49.619816 415.88281 48.511719 C 416.62154 47.362581 417.52474 46.439878 418.5918 45.742188 C 419.69989 45.003456 420.87034 44.470903 422.10156 44.142578 C 423.37382 43.773212 424.56378 43.587891 425.67188 43.587891 z M 574.63867 43.771484 C 575.66469 43.771484 576.58934 43.896334 577.41016 44.142578 C 578.27201 44.388822 579.00939 44.695087 579.625 45.064453 C 580.28165 45.433819 580.83566 45.823969 581.28711 46.234375 C 581.73856 46.644781 582.08774 46.993966 582.33398 47.28125 L 583.38086 44.326172 L 590.64453 44.326172 L 590.64453 58.238281 L 581.5957 58.238281 C 581.55466 57.49955 581.45127 56.762169 581.28711 56.023438 C 581.16399 55.243665 580.95916 54.545297 580.67188 53.929688 C 580.38459 53.273037 579.99444 52.759991 579.50195 52.390625 C 579.00947 51.980219 578.41449 51.775391 577.7168 51.775391 C 576.8139 51.775391 576.0141 52.001678 575.31641 52.453125 C 574.65976 52.904572 574.10574 53.49955 573.6543 54.238281 C 573.20285 54.977013 572.85367 55.817784 572.60742 56.761719 C 572.40222 57.705653 572.30078 58.669322 572.30078 59.654297 C 572.30078 61.747369 572.8743 63.491337 574.02344 64.886719 C 575.17258 66.24106 576.77414 66.919922 578.82617 66.919922 C 580.38572 66.919922 581.73953 66.611703 582.88867 65.996094 C 584.03781 65.339444 585.10487 64.477213 586.08984 63.410156 L 591.50781 69.689453 C 590.76908 70.469225 589.88539 71.249525 588.85938 72.029297 C 587.83336 72.768028 586.66486 73.423478 585.35156 73.998047 C 584.0793 74.572616 582.68257 75.044697 581.16406 75.414062 C 579.64556 75.783428 578.06545 75.96875 576.42383 75.96875 C 574.16659 75.96875 572.01297 75.641025 569.96094 74.984375 C 567.90891 74.286684 566.10251 73.260591 564.54297 71.90625 C 563.02447 70.510868 561.79354 68.786407 560.84961 66.734375 C 559.94672 64.682343 559.49609 62.280973 559.49609 59.53125 C 559.49609 56.822568 559.90575 54.483623 560.72656 52.513672 C 561.58842 50.502681 562.71595 48.862104 564.11133 47.589844 C 565.50671 46.276543 567.10827 45.310922 568.91406 44.695312 C 570.76089 44.079703 572.66872 43.771484 574.63867 43.771484 z M 341.01953 44.326172 L 355.30273 44.326172 L 355.30273 67.042969 L 358.25781 67.042969 L 358.25781 75.107422 L 341.01953 75.107422 L 341.01953 67.042969 L 343.60547 67.042969 L 343.60547 52.330078 L 341.01953 52.330078 L 341.01953 44.326172 z M 522.69727 44.326172 L 536.98047 44.326172 L 536.98047 67.042969 L 539.93359 67.042969 L 539.93359 75.107422 L 522.69727 75.107422 L 522.69727 67.042969 L 525.2832 67.042969 L 525.2832 52.330078 L 522.69727 52.330078 L 522.69727 44.326172 z M 175.30859 51.589844 C 174.69298 51.589844 174.11947 51.796625 173.58594 52.207031 C 173.09345 52.617438 172.66233 53.190956 172.29297 53.929688 C 171.9236 54.668419 171.61538 55.53065 171.36914 56.515625 C 171.16394 57.5006 171.0625 58.5462 171.0625 59.654297 C 171.0625 62.198817 171.49166 64.231496 172.35352 65.75 C 173.21537 67.268504 174.30389 68.027344 175.61719 68.027344 C 176.27384 68.027344 176.84736 67.822516 177.33984 67.412109 C 177.87337 67.001703 178.32595 66.426232 178.69531 65.6875 C 179.06468 64.948768 179.33193 64.086538 179.49609 63.101562 C 179.7013 62.075547 179.80273 60.988982 179.80273 59.839844 C 179.80273 58.690706 179.7013 57.623647 179.49609 56.638672 C 179.29089 55.612656 179.00218 54.730919 178.63281 53.992188 C 178.26345 53.253456 177.79137 52.677985 177.2168 52.267578 C 176.68327 51.816131 176.04733 51.589844 175.30859 51.589844 z "
       id="path4765"
       transform="translate(-1128.625,74.595096)" />
    <rect
       style="color:#000000;clip-rule:nonzero;display:inline;overflow:visible;visibility:visible;opacity:1;isolation:auto;mix-blend-mode:normal;color-interpolation:sRGB;color-interpolation-filters:linearRGB;solid-color:#000000;solid-opacity:1;fill:#ffffff;fill-opacity:1;fill-rule:nonzero;stroke:none;stroke-width:1px;stroke-linecap:butt;stroke-linejoin:miter;stroke-miterlimit:4;stroke-dasharray:none;stroke-dashoffset:0;stroke-opacity:1;color-rendering:auto;image-rendering:auto;shape-rendering:auto;text-rendering:auto;enable-background:accumulate"
       id="rect4789"
       width="403.14062"
       height="50.919712"
       x="-1016.3766"
       y="206.27397" />
    <text
       xml:space="preserve"
       style="font-style:normal;font-variant:normal;font-weight:normal;font-stretch:normal;font-size:38.77878571px;line-height:137.99999952%;font-family:Quattrocento;-inkscape-font-specification:Quattrocento;letter-spacing:0px;word-spacing:0px;fill:#000000;fill-opacity:1;stroke:none;stroke-width:1px;stroke-linecap:butt;stroke-linejoin:miter;stroke-opacity:1"
       x="-1008.2299"
       y="245.09268"
       id="text4791"
       sodipodi:linespacing="138%"><tspan
         sodipodi:role="line"
         x="-1008.2299"
         y="245.09268"
         id="tspan4793">Innovation. Delivered.</tspan></text>
  </g>
</svg>
